<svg xmlns="http://www.w3.org/2000/svg" viewBox="0 0 128 128"><defs><style>.cls-1{fill:#ff2d20;}</style></defs><path class="cls-1" d="M126.52,29.73a1.22,1.22,0,0,0-.07-.17,1.6,1.6,0,0,0-.13-.3,1.24,1.24,0,0,0-.14-.18,1.92,1.92,0,0,0-.18-.22,1.39,1.39,0,0,0-.19-.15,2,2,0,0,0-.23-.17h0L101.35,15a2.06,2.06,0,0,0-2,0L75.11,28.54h0c-.08.05-.14.11-.22.17s-.14.09-.2.15a1.92,1.92,0,0,0-.18.22,1.18,1.18,0,0,0-.13.18,1.6,1.6,0,0,0-.13.3.61.61,0,0,0-.07.17,1.7,1.7,0,0,0-.07.51V56L53.9,67.27V16.92a1.7,1.7,0,0,0-.07-.51.61.61,0,0,0-.07-.17,1.6,1.6,0,0,0-.13-.3,1.18,1.18,0,0,0-.13-.18,1.92,1.92,0,0,0-.18-.22c-.06-.06-.14-.1-.2-.15s-.14-.12-.22-.17h0L28.66,1.67a2.06,2.06,0,0,0-2,0L2.42,15.22h0a2,2,0,0,0-.23.17,1.39,1.39,0,0,0-.19.15,1.92,1.92,0,0,0-.18.22,1.24,1.24,0,0,0-.14.18,1.6,1.6,0,0,0-.13.3,1.22,1.22,0,0,0-.07.17,1.7,1.7,0,0,0-.07.51V97.53a1.94,1.94,0,0,0,1,1.7l48.46,27.1a1.89,1.89,0,0,0,.33.13l.16.07a2.24,2.24,0,0,0,1,0l.14-.06a2.13,2.13,0,0,0,.35-.14l48.46-27.1a1.94,1.94,0,0,0,1-1.7V71.79l23.22-13a1.94,1.94,0,0,0,1-1.7V30.24A1.7,1.7,0,0,0,126.52,29.73ZM51.88,95.27,31.73,84.2,52.89,72.36h0l23.22-13L96.28,70.65,81.49,78.86ZM98.32,44.92V67.27l-8.47-4.74L78.13,56V33.63l8.48,4.74Zm2-26,20.19,11.29L100.34,41.53,80.16,30.24ZM38.15,76.08l-8.47,4.74V31.6l11.71-6.55,8.48-4.74V69.53ZM27.66,5.63,47.84,16.92,27.66,28.21,7.47,16.92ZM5.45,20.31l8.48,4.74L25.64,31.6V84.21h0a1.92,1.92,0,0,0,0,.22,1.35,1.35,0,0,0,0,.28h0a1.45,1.45,0,0,0,.09.22,1.75,1.75,0,0,0,.11.24h0a1.39,1.39,0,0,0,.15.19c.06.07.11.15.17.21h0a1,1,0,0,0,.19.15l.22.16h0L49.87,98.67v22.57L5.45,96.4ZM98.32,96.4,53.9,121.24V98.67L86.8,80.43,98.32,74ZM122.55,56,102.36,67.27V44.92l11.71-6.55,8.48-4.74Z"/></svg>