<svg version="1.1" xmlns="http://www.w3.org/2000/svg" xmlns:xlink="http://www.w3.org/1999/xlink">
    <!--
    The MIT License (MIT)
    
    Copyright (c) 2015 konpa
    
    Permission is hereby granted, free of charge, to any person obtaining a copy of
    this software and associated documentation files (the "Software"), to deal in
    the Software without restriction, including without limitation the rights to
    use, copy, modify, merge, publish, distribute, sublicense, and/or sell copies of
    the Software, and to permit persons to whom the Software is furnished to do so,
    subject to the following conditions:
    
    The above copyright notice and this permission notice shall be included in all
    copies or substantial portions of the Software.
    
    THE SOFTWARE IS PROVIDED "AS IS", WITHOUT WARRANTY OF ANY KIND, EXPRESS OR
    IMPLIED, INCLUDING BUT NOT LIMITED TO THE WARRANTIES OF MERCHANTABILITY, FITNESS
    FOR A PARTICULAR PURPOSE AND NONINFRINGEMENT. IN NO EVENT SHALL THE AUTHORS OR
    COPYRIGHT HOLDERS BE LIABLE FOR ANY CLAIM, DAMAGES OR OTHER LIABILITY, WHETHER
    IN AN ACTION OF CONTRACT, TORT OR OTHERWISE, ARISING FROM, OUT OF OR IN
    CONNECTION WITH THE SOFTWARE OR THE USE OR OTHER DEALINGS IN THE SOFTWARE.
    
    Source: https://github.com/devicons/devicon
    -->
    
    <symbol id="bootstrap" viewBox="0 0 128 128">
        <title>Bootstrap</title>
        <path d="M27.235 13.885c-7.177 0-12.486 6.284-12.249 13.099.228 6.546-.068 15.026-2.203 21.94-2.14 6.936-5.76 11.319-11.673 11.883v6.387c5.913.563 9.533 4.947 11.673 11.883 2.135 6.914 2.43 15.394 2.203 21.94-.238 6.815 5.072 13.098 12.249 13.098h73.54c7.177 0 12.486-6.284 12.249-13.098-.228-6.546.068-15.026 2.202-21.94 2.14-6.935 5.751-11.319 11.664-11.883v-6.387c-5.913-.563-9.523-4.947-11.664-11.883-2.134-6.914-2.43-15.394-2.202-21.94.237-6.815-5.072-13.099-12.25-13.099zm58.114 61.686c0 9.384-7.002 15.073-18.621 15.073H45.306a.491.491 0 01-.491-.491V37.827a.491.491 0 01.491-.492h21.309c9.689 0 16.047 5.246 16.047 13.3 0 5.653-4.277 10.713-9.727 11.6v.296c7.418.813 12.414 5.948 12.414 13.04zM64.571 44.096H53.293v15.922h9.5c7.342 0 11.391-2.955 11.391-8.238 0-4.95-3.481-7.684-9.613-7.684zm-11.278 22.24v17.548h11.695c7.645 0 11.695-3.066 11.695-8.83 0-5.763-4.163-8.718-12.187-8.718z" fill="#7952b3"/>
    </symbol>
    
    <symbol id="css" viewBox="0 0 128 128">
        <title>CSS3</title>
        <path fill="#1572B6" d="M8.76 1l10.055 112.883 45.118 12.58 45.244-12.626L119.24 1H8.76zm89.591 25.862l-3.347 37.605.01.203-.014.467v-.004l-2.378 26.294-.262 2.336L64 101.607v.001l-.022.019-28.311-7.888L33.75 72h13.883l.985 11.054 15.386 4.17-.004.008v-.002l15.443-4.229L81.075 65H48.792l-.277-3.043-.631-7.129L47.553 51h34.749l1.264-14H30.64l-.277-3.041-.63-7.131L29.401 23h69.281l-.331 3.862z"/>
    </symbol>
    
    <symbol id="firebase" viewBox="0 0 128 128">
        <title>Firebase</title>
        <path fill="#f58220" d="M27.35 80.52l10.68-68.44c.37-2.33 3.5-2.89 4.6-.8l11.48 21.48-26.76 47.76zm75.94 16.63L93.1 34.11c-.31-1.96-2.76-2.76-4.17-1.35L24.71 97.15l35.54 19.95a7.447 7.447 0 007.18 0l35.86-19.95zm-28.85-55L66.21 26.5c-.92-1.78-3.44-1.78-4.36 0L25.7 90.95l48.74-48.8z"/>
    </symbol>
    
    <symbol id="github" viewBox="0 0 128 128">
        <title>GitHub</title>
        <g fill="#181616"><path fill-rule="evenodd" clip-rule="evenodd" d="M64 5.103c-33.347 0-60.388 27.035-60.388 60.388 0 26.682 17.303 49.317 41.297 57.303 3.017.56 4.125-1.31 4.125-2.905 0-1.44-.056-6.197-.082-11.243-16.8 3.653-20.345-7.125-20.345-7.125-2.747-6.98-6.705-8.836-6.705-8.836-5.48-3.748.413-3.67.413-3.67 6.063.425 9.257 6.223 9.257 6.223 5.386 9.23 14.127 6.562 17.573 5.02.542-3.903 2.107-6.568 3.834-8.076-13.413-1.525-27.514-6.704-27.514-29.843 0-6.593 2.36-11.98 6.223-16.21-.628-1.52-2.695-7.662.584-15.98 0 0 5.07-1.623 16.61 6.19C53.7 35 58.867 34.327 64 34.304c5.13.023 10.3.694 15.127 2.033 11.526-7.813 16.59-6.19 16.59-6.19 3.287 8.317 1.22 14.46.593 15.98 3.872 4.23 6.215 9.617 6.215 16.21 0 23.194-14.127 28.3-27.574 29.796 2.167 1.874 4.097 5.55 4.097 11.183 0 8.08-.07 14.583-.07 16.572 0 1.607 1.088 3.49 4.148 2.897 23.98-7.994 41.263-30.622 41.263-57.294C124.388 32.14 97.35 5.104 64 5.104z"/><path d="M26.484 91.806c-.133.3-.605.39-1.035.185-.44-.196-.685-.605-.543-.906.13-.31.603-.395 1.04-.188.44.197.69.61.537.91zm2.446 2.729c-.287.267-.85.143-1.232-.28-.396-.42-.47-.983-.177-1.254.298-.266.844-.14 1.24.28.394.426.472.984.17 1.255zM31.312 98.012c-.37.258-.976.017-1.35-.52-.37-.538-.37-1.183.01-1.44.373-.258.97-.025 1.35.507.368.545.368 1.19-.01 1.452zm3.261 3.361c-.33.365-1.036.267-1.552-.23-.527-.487-.674-1.18-.343-1.544.336-.366 1.045-.264 1.564.23.527.486.686 1.18.333 1.543zm4.5 1.951c-.147.473-.825.688-1.51.486-.683-.207-1.13-.76-.99-1.238.14-.477.823-.7 1.512-.485.683.206 1.13.756.988 1.237zm4.943.361c.017.498-.563.91-1.28.92-.723.017-1.308-.387-1.315-.877 0-.503.568-.91 1.29-.924.717-.013 1.306.387 1.306.88zm4.598-.782c.086.485-.413.984-1.126 1.117-.7.13-1.35-.172-1.44-.653-.086-.498.422-.997 1.122-1.126.714-.123 1.354.17 1.444.663zm0 0"/></g>
    </symbol>
    
    <symbol id="html" viewBox="0 0 128 128">
        <title>HTML5</title>
        <path fill="#E44D26" d="M9.032 2l10.005 112.093 44.896 12.401 45.02-12.387L118.968 2H9.032zm89.126 26.539l-.627 7.172L97.255 39H44.59l1.257 14h50.156l-.336 3.471-3.233 36.119-.238 2.27L64 102.609v.002l-.034.018-28.177-7.423L33.876 74h13.815l.979 10.919L63.957 89H64v-.546l15.355-3.875L80.959 67H33.261l-3.383-38.117L29.549 25h68.939l-.33 3.539z"/>
    </symbol>
    
    <symbol id="javascript" viewBox="0 0 128 128">
        <title>JavaScript</title>
        <path fill="#F0DB4F" d="M2 1v125h125V1H2zm66.119 106.513c-1.845 3.749-5.367 6.212-9.448 7.401-6.271 1.44-12.269.619-16.731-2.059-2.986-1.832-5.318-4.652-6.901-7.901l9.52-5.83c.083.035.333.487.667 1.071 1.214 2.034 2.261 3.474 4.319 4.485 2.022.69 6.461 1.131 8.175-2.427 1.047-1.81.714-7.628.714-14.065C58.433 78.073 58.48 68 58.48 58h11.709c0 11 .06 21.418 0 32.152.025 6.58.596 12.446-2.07 17.361zm48.574-3.308c-4.07 13.922-26.762 14.374-35.83 5.176-1.916-2.165-3.117-3.296-4.26-5.795 4.819-2.772 4.819-2.772 9.508-5.485 2.547 3.915 4.902 6.068 9.139 6.949 5.748.702 11.531-1.273 10.234-7.378-1.333-4.986-11.77-6.199-18.873-11.531-7.211-4.843-8.901-16.611-2.975-23.335 1.975-2.487 5.343-4.343 8.877-5.235l3.688-.477c7.081-.143 11.507 1.727 14.756 5.355.904.916 1.642 1.904 3.022 4.045-3.772 2.404-3.76 2.381-9.163 5.879-1.154-2.486-3.069-4.046-5.093-4.724-3.142-.952-7.104.083-7.926 3.403-.285 1.023-.226 1.975.227 3.665 1.273 2.903 5.545 4.165 9.377 5.926 11.031 4.474 14.756 9.271 15.672 14.981.882 4.916-.213 8.105-.38 8.581z"/>
    </symbol>
    
    <symbol id="mysql" viewBox="0 0 128 128">
        <title>MySQL</title>
        <path fill="#00618A" d="M125.477 122.783l-2.616-2.537c-2.479-3.292-5.668-6.184-9.015-8.585-2.669-1.916-8.661-4.504-9.775-7.609l-.205-.195c1.893-.214 4.103-.898 5.85-1.367 2.934-.786 5.356-.583 8.386-1.365 1.366-.39 2.899-.781 3.899-1.171v-.78c-1-1.571-2.427-3.651-4.097-5.073-4.369-3.72-9.041-7.437-13.951-10.537-2.723-1.718-6.041-2.835-8.926-4.292-.971-.491-2.652-.746-3.294-1.562-1.517-1.932-2.328-4.382-3.498-6.633-2.449-4.717-4.849-9.868-7.019-14.831-1.48-3.384-2.443-6.72-4.289-9.756-8.86-14.567-18.395-23.358-33.167-32-3.145-1.838-6.929-2.563-10.929-3.513-2.144-.129-4.291-.26-6.437-.391-1.311-.546-2.674-2.149-3.902-2.927-4.896-3.092-17.449-9.817-21.074-.975-2.289 5.581 3.42 11.025 5.462 13.854 1.435 1.982 3.27 4.207 4.293 6.438.675 1.467.79 2.938 1.367 4.489 1.418 3.822 2.651 7.98 4.487 11.511.927 1.788 1.949 3.67 3.122 5.268.718.981 1.95 1.413 2.145 2.927-1.204 1.686-1.273 4.304-1.95 6.44-3.05 9.615-1.898 21.567 2.537 28.683 1.36 2.186 4.566 6.871 8.975 5.073 3.856-1.57 3.226-6.438 4.329-10.732.249-.972-.185-1.688.815-2.341v.195a128.6 128.6 0 003.282 7.024c2.6 4.187 6.889 8.562 10.798 11.514 2.027 1.531 3.92 4.177 5.92 5.073v-.101h.221c-.507-1-1.302-1.167-1.95-1.804-1.527-1.496-3.226-3.382-4.487-5.097-3.556-4.827-6.698-10.122-9.561-15.622-1.368-2.626-2.557-5.529-3.709-8.201-.443-1.03-.438-2.592-1.364-3.125-1.263 1.958-3.122 3.54-4.099 5.853-1.561 3.696-1.762 8.204-2.341 12.877-.343.122-.19.038-.391.194-2.718-.655-3.672-3.452-4.683-5.853-2.555-6.07-3.029-15.843-.781-22.829.582-1.809 3.211-7.501 2.146-9.172-.508-1.665-2.184-2.63-3.121-3.903-1.161-1.574-2.319-3.646-3.123-5.464-2.091-4.731-3.066-10.044-5.268-14.828-1.053-2.287-2.832-4.602-4.293-6.634-1.617-2.253-3.429-3.912-4.684-6.635-.445-.968-1.051-2.518-.39-3.513.21-.671.507-.951 1.171-1.17 1.133-.873 4.283.29 5.463.779 3.129 1.3 5.741 2.5 8.392 4.256 1.271.844 2.559 1.89 4.097 2.89h1.756c2.747 0 5.824.232 8.391 1.012 4.535 1.379 8.6 3.542 12.292 5.873 11.246 7.102 20.441 17.22 26.732 29.278 1.012 1.942 1.45 3.799 2.341 5.858 1.798 4.153 4.064 8.428 5.853 12.489 1.786 4.053 3.526 8.142 6.05 11.514 1.327 1.772 6.451 2.724 8.78 3.709 1.633.689 4.308 1.409 5.854 2.34 2.953 1.782 5.814 3.904 8.586 5.855 1.384.974 5.64 3.114 5.853 4.878-6.863-.188-12.104.452-16.585 2.341-1.273.537-3.305.552-3.513 2.147.7.733.809 1.829 1.365 2.731 1.069 1.73 2.876 4.052 4.488 5.268 1.762 1.33 3.576 2.751 5.464 3.902 3.359 2.047 7.107 3.217 10.341 5.268 1.906 1.21 3.958 2.733 5.815 4.097.92.675.891 1.724 2.891 2.147v-.194c-.999-.795-.946-1.893-1.522-2.728zM29.514 23.465c-1.431-.027-2.514.157-3.514.389V24h.198c.683 1 1.888 2.33 2.731 3.538l1.952 4.108.193-.187c1.209-.853 1.763-2.211 1.756-4.291-.483-.509-.556-1.146-.974-1.754-.558-.809-1.639-1.268-2.342-1.949z"/>
    </symbol>
    
    <symbol id="php" viewBox="0 0 128 128">
        <title>PHP</title>
        <path fill="#6181B6" d="M64 33.039C30.26 33.039 2.906 46.901 2.906 64S30.26 94.961 64 94.961 125.094 81.099 125.094 64 97.74 33.039 64 33.039zM48.103 70.032c-1.458 1.364-3.077 1.927-4.86 2.507-1.783.581-4.052.461-6.811.461h-6.253l-1.733 10h-7.301l6.515-34H41.7c4.224 0 7.305 1.215 9.242 3.432 1.937 2.217 2.519 5.364 1.747 9.337-.319 1.637-.856 3.159-1.614 4.515a15.118 15.118 0 01-2.972 3.748zM69.414 73l2.881-14.42c.328-1.688.208-2.942-.361-3.555-.57-.614-1.782-1.025-3.635-1.025h-5.79l-3.731 19h-7.244l6.515-33h7.244l-1.732 9h6.453c4.061 0 6.861.815 8.402 2.231s2.003 3.356 1.387 6.528L76.772 73h-7.358zm40.259-11.178c-.318 1.637-.856 3.133-1.613 4.488-.758 1.357-1.748 2.598-2.971 3.722-1.458 1.364-3.078 1.927-4.86 2.507-1.782.581-4.053.461-6.812.461h-6.253l-1.732 10h-7.301l6.514-34h14.041c4.224 0 7.305 1.215 9.241 3.432 1.935 2.217 2.518 5.418 1.746 9.39zM95.919 54h-5.001l-2.727 14h4.442c2.942 0 5.136-.29 6.576-1.4 1.442-1.108 2.413-2.828 2.918-5.421.484-2.491.264-4.434-.66-5.458-.925-1.024-2.774-1.721-5.548-1.721zm-56.985 0h-5.002l-2.727 14h4.441c2.943 0 5.136-.29 6.577-1.4 1.441-1.108 2.413-2.828 2.917-5.421.484-2.491.264-4.434-.66-5.458S41.708 54 38.934 54z"/>
    </symbol>
    
    <symbol id="vuejs" viewBox="0 0 128 128">
        <title>Vue.js</title>
        <path d="M0 8.934l49.854.158 14.167 24.47 14.432-24.47L128 8.935l-63.834 110.14zm126.98.637l-24.36.02-38.476 66.053L25.691 9.592.942 9.572l63.211 107.89zm-25.149-.008l-22.745.168-15.053 24.647L49.216 9.73l-22.794-.168 37.731 64.476zm-75.834-.17l23.002.009m-23.002-.01l23.002.01" fill="none"/><path d="M25.997 9.393l23.002.009L64.035 34.36 79.018 9.404 102 9.398 64.15 75.053z" fill="#35495e"/><path d="M.91 9.569l25.067-.172 38.15 65.659L101.98 9.401l25.11.026-62.966 108.06z" fill="#41b883"/>
    </symbol>
    
    <symbol id="wordpress" viewBox="0 0 128 128">
        <title>WordPress</title>
        <path fill-rule="evenodd" clip-rule="evenodd" fill="#494949" d="M64.094 126.224c34.275-.052 62.021-27.933 62.021-62.325 0-33.833-27.618-61.697-60.613-62.286C30.85.995 1.894 29.113 1.885 63.21c-.01 35.079 27.612 63.064 62.209 63.014zM63.993 4.63c32.907-.011 59.126 26.725 59.116 60.28-.011 31.679-26.925 58.18-59.092 58.187-32.771.007-59.125-26.563-59.124-59.608.002-32.193 26.766-58.848 59.1-58.859zM39.157 35.896c.538 1.793-.968 2.417-2.569 2.542-1.685.13-3.369.257-5.325.406 6.456 19.234 12.815 38.183 19.325 57.573.464-.759.655-.973.739-1.223 3.574-10.682 7.168-21.357 10.651-32.069.318-.977.16-2.271-.188-3.275-1.843-5.32-4.051-10.524-5.667-15.908-1.105-3.686-2.571-6.071-6.928-5.644-.742.073-1.648-1.524-2.479-2.349 1.005-.6 2.003-1.704 3.017-1.719a849.593 849.593 0 0126.618.008c1.018.017 2.016 1.15 3.021 1.765-.88.804-1.639 2.01-2.668 2.321-1.651.498-3.482.404-5.458.58l19.349 57.56c2.931-9.736 5.658-18.676 8.31-27.639 2.366-8.001.956-15.473-3.322-22.52-1.286-2.119-2.866-4.175-3.595-6.486-.828-2.629-1.516-5.622-1.077-8.259.745-4.469 4.174-6.688 8.814-7.113C74.333.881 34.431 9.317 19.728 34.922c5.66-.261 11.064-.604 16.472-.678 1.022-.013 2.717.851 2.957 1.652zm10.117 77.971c-.118.345-.125.729-.218 1.302 10.943 3.034 21.675 2.815 32.659-.886l-16.78-45.96c-5.37 15.611-10.52 30.575-15.661 45.544zm-8.456-2.078l-25.281-69.35c-11.405 22.278-2.729 56.268 25.281 69.35zm76.428-44.562c.802-10.534-2.832-25.119-5.97-27.125-.35 3.875-.106 8.186-1.218 12.114-2.617 9.255-5.817 18.349-8.899 27.468-3.35 9.912-6.832 19.779-10.257 29.666 16.092-9.539 24.935-23.618 26.344-42.123z"/>
    </symbol>
    
    <symbol id="git" viewBox="0 0 128 128">
        <title>Git</title>
        <path fill="#F34F29" d="M124.742 58.378L69.625 3.264c-3.172-3.174-8.32-3.174-11.497 0L46.685 14.71l14.518 14.518c3.375-1.139 7.243-.375 9.932 2.314a9.66 9.66 0 012.293 9.993L87.42 55.529c3.385-1.167 7.292-.413 9.994 2.295 3.78 3.777 3.78 9.9 0 13.679a9.673 9.673 0 01-13.683 0 9.677 9.677 0 01-2.105-10.521L68.578 47.933l-.002 34.341a9.708 9.708 0 012.559 1.828c3.779 3.777 3.779 9.898 0 13.683-3.779 3.777-9.904 3.777-13.679 0-3.778-3.784-4.088-9.905-.311-13.683.934-.933 1.855-1.638 2.855-2.11V47.333c-1-.472-1.92-1.172-2.856-2.111-2.861-2.86-3.396-7.06-1.928-10.576L40.983 20.333 3.229 58.123c-3.175 3.177-3.155 8.325.02 11.5l55.126 55.114c3.173 3.174 8.325 3.174 11.503 0l54.86-54.858c3.175-3.176 3.178-8.327.004-11.501z"/>
    </symbol>
    
    <symbol id="illustrator" viewBox="0 0 128 128">
        <title>Adobe Illustrator</title>
        <path fill-rule="evenodd" clip-rule="evenodd" fill="#FAA625" d="M47.955 69h15.371c-2.646-9-5.252-17.32-7.816-25.776C53.022 51.71 50.498 60 47.955 69zm76.157-68H2.873C.687 1 1 1.476 1 3.585v121.394C1 127.086.687 127 2.719 127h121.547c2.031 0 2.734.086 2.734-2.022V3.739C127 1.476 126.298 1 124.112 1zM77.298 96c-1.637 0-3.28-.133-4.909-.016-1.175.088-1.568-.406-1.881-1.426-1.514-4.931-3.123-9.86-4.638-14.79-.305-.992-.741-1.354-1.816-1.341-5.523.064-11.049.058-16.573-.007-1.163-.014-1.698.296-2.03 1.45-1.406 4.904-2.944 9.768-4.365 14.667-.308 1.062-.776 1.433-1.904 1.404-3.318-.083-6.641-.032-10.274-.032.959-3.045 1.829-5.861 2.729-8.665 5.514-17.2 11.047-34.4 16.521-51.611.382-1.198.913-1.567 2.143-1.54 3.886.086 7.775.022 11.663 0 .727-.005 1.223.038 1.489.864 6.505 20.116 13.033 40.356 19.555 60.47.028.091.01.573.025.573h-5.735zM98 96H86V51h12v45zm-6.35-51.071c-3.665-.005-6.289-2.528-6.314-6.07-.024-3.532 2.707-6.159 6.406-6.163 3.728-.004 6.355 2.537 6.384 6.171.026 3.545-2.667 6.068-6.476 6.062z"/>
    </symbol>
    
    <symbol id="photoshop" viewBox="0 0 128 128">
        <title>Adobe Photoshop</title>
        <path fill-rule="evenodd" clip-rule="evenodd" fill="#80B5E2" d="M50.246 41.616c-3.682-.925-7.369-.628-11.26-.022 0 6.805-.014 13.427.037 20.05.002.339.511.929.841.974 4.243.573 8.463.619 12.431-1.315 4.105-2 6.196-6.182 5.654-11.092-.492-4.471-3.139-7.448-7.703-8.595zM127 63.963V3.285c0-2.096.023-2.285-2.012-2.285H3.479C1.5 1 1 1.19 1 3.186v121.509c0 2.018.252 2.021 2.209 2.021 40.555.001 81.231-.009 121.786.037 1.573.002 1.995-.417 1.991-1.959-.054-20.277.014-40.556.014-60.831zm-70.648 5.84C50.795 71.785 45 71.896 39 71.431V94H28v-1.402c0-18.895-.087-37.788-.14-56.682-.006-1.569.243-2.327 2.011-2.507 8.332-.852 16.617-1.81 24.902.133 8.906 2.087 14.041 7.975 14.431 16.11.483 10.074-3.944 16.974-12.852 20.151zm44.31 12.754c-.424 5.771-3.678 9.56-9.015 11.392-7.142 2.452-14.245 1.883-21.225-.891-1.143-.455-1.364-1.031-.987-2.196.687-2.126 1.19-4.312 1.72-6.286 2.951.866 5.757 1.947 8.664 2.458 2.053.361 4.272.149 6.359-.178 1.871-.294 3.217-1.564 3.524-3.572.312-2.041-.303-3.809-2.105-4.895-1.432-.862-3.01-1.479-4.523-2.202-2.433-1.163-5.026-2.075-7.27-3.53-8.831-5.727-5.956-16.383-.063-20.396 3.153-2.146 6.642-3.098 10.377-3.229 4.393-.154 8.623.604 12.778 2.623l-2.195 7.789c-1.74-.616-3.36-1.416-5.07-1.734-2.029-.378-4.157-.589-6.205-.422-2.746.225-4.354 2.12-4.354 4.47 0 1.392.528 2.57 1.689 3.245 1.666.969 3.434 1.768 5.186 2.579 1.896.877 3.898 1.551 5.723 2.552 4.87 2.67 7.405 6.8 6.992 12.423z"/>
    </symbol>
    
    <!--
    Source: https://github.com/laravel/art
    -->
    
    <symbol id="laravel" viewBox="0 0 128 128">
        <title>Laravel</title>
        <path fill="#ff2d20" d="M126.52,29.73a1.22,1.22,0,0,0-.07-.17,1.6,1.6,0,0,0-.13-.3,1.24,1.24,0,0,0-.14-.18,1.92,1.92,0,0,0-.18-.22,1.39,1.39,0,0,0-.19-.15,2,2,0,0,0-.23-.17h0L101.35,15a2.06,2.06,0,0,0-2,0L75.11,28.54h0c-.08.05-.14.11-.22.17s-.14.09-.2.15a1.92,1.92,0,0,0-.18.22,1.18,1.18,0,0,0-.13.18,1.6,1.6,0,0,0-.13.3.61.61,0,0,0-.07.17,1.7,1.7,0,0,0-.07.51V56L53.9,67.27V16.92a1.7,1.7,0,0,0-.07-.51.61.61,0,0,0-.07-.17,1.6,1.6,0,0,0-.13-.3,1.18,1.18,0,0,0-.13-.18,1.92,1.92,0,0,0-.18-.22c-.06-.06-.14-.1-.2-.15s-.14-.12-.22-.17h0L28.66,1.67a2.06,2.06,0,0,0-2,0L2.42,15.22h0a2,2,0,0,0-.23.17,1.39,1.39,0,0,0-.19.15,1.92,1.92,0,0,0-.18.22,1.24,1.24,0,0,0-.14.18,1.6,1.6,0,0,0-.13.3,1.22,1.22,0,0,0-.07.17,1.7,1.7,0,0,0-.07.51V97.53a1.94,1.94,0,0,0,1,1.7l48.46,27.1a1.89,1.89,0,0,0,.33.13l.16.07a2.24,2.24,0,0,0,1,0l.14-.06a2.13,2.13,0,0,0,.35-.14l48.46-27.1a1.94,1.94,0,0,0,1-1.7V71.79l23.22-13a1.94,1.94,0,0,0,1-1.7V30.24A1.7,1.7,0,0,0,126.52,29.73ZM51.88,95.27,31.73,84.2,52.89,72.36h0l23.22-13L96.28,70.65,81.49,78.86ZM98.32,44.92V67.27l-8.47-4.74L78.13,56V33.63l8.48,4.74Zm2-26,20.19,11.29L100.34,41.53,80.16,30.24ZM38.15,76.08l-8.47,4.74V31.6l11.71-6.55,8.48-4.74V69.53ZM27.66,5.63,47.84,16.92,27.66,28.21,7.47,16.92ZM5.45,20.31l8.48,4.74L25.64,31.6V84.21h0a1.92,1.92,0,0,0,0,.22,1.35,1.35,0,0,0,0,.28h0a1.45,1.45,0,0,0,.09.22,1.75,1.75,0,0,0,.11.24h0a1.39,1.39,0,0,0,.15.19c.06.07.11.15.17.21h0a1,1,0,0,0,.19.15l.22.16h0L49.87,98.67v22.57L5.45,96.4ZM98.32,96.4,53.9,121.24V98.67L86.8,80.43,98.32,74ZM122.55,56,102.36,67.27V44.92l11.71-6.55,8.48-4.74Z"/>
    </symbol>
</svg>